<svg width="46" height="46" viewBox="0 0 46 46" fill="none" xmlns="http://www.w3.org/2000/svg">
<path d="M21.0803 0.814089C13.4922 1.75569 7.52673 7.20006 5.90412 14.6725C5.52233 16.3867 5.53427 19.7909 5.90412 21.5413C6.36943 23.7142 7.14494 25.6457 8.25452 27.3841C9.13741 28.7723 9.14934 28.6154 8.11135 29.1345C7.61025 29.388 6.89439 29.8829 6.5126 30.2451C5.89219 30.8125 5.67744 31.1746 4.53207 33.432C3.18387 36.0878 2.75436 36.7035 1.48968 37.7658C0.869266 38.2849 0.833474 38.3452 1.07209 38.4177C1.62092 38.5746 5.86833 38.635 7.12108 38.4901C11.8457 37.9348 15.9858 36.2568 18.7299 33.77C19.1117 33.42 19.41 33.2268 19.41 33.3234C19.41 33.4079 19.3264 34.0235 19.231 34.6875C18.9924 36.2689 18.9924 38.6953 19.231 39.6248C19.5531 40.8682 20.9848 43.174 22.2853 44.5622L22.9892 45.2986L23.7767 44.4777C25.0891 43.0894 26.4969 40.7596 26.8191 39.4438C27.0219 38.5505 26.998 36.1844 26.7594 34.6513C26.652 33.9632 26.5685 33.3475 26.5685 33.2751C26.5685 33.2027 26.9622 33.4803 27.4395 33.9028C30.2075 36.3293 34.252 37.9469 38.8574 38.4901C40.2175 38.647 44.453 38.5867 44.9183 38.3935C45.1689 38.297 45.1569 38.2728 44.5842 37.8262C43.3673 36.8846 42.8781 36.1965 41.5419 33.5407C40.6948 31.8265 40.134 30.8607 39.7999 30.5107C39.2392 29.9312 38.0699 29.1345 37.4734 28.9413C37.2467 28.8568 37.0677 28.724 37.0677 28.6154C37.0677 28.5188 37.3064 28.0722 37.5927 27.6255C38.75 25.851 39.6448 23.678 40.1221 21.4568C40.4442 19.9961 40.4442 16.278 40.1221 14.8173C39.3466 11.1596 37.9387 8.56417 35.3497 5.93252C32.7607 3.32502 29.9569 1.80397 26.3418 1.05552C24.9578 0.777873 22.3927 0.657156 21.0803 0.814089ZM25.5544 1.84019C27.2128 2.10577 28.6326 2.5645 30.2075 3.33709C37.8194 7.06727 41.3748 15.7107 38.5472 23.6297C38.1296 24.8249 37.545 25.9717 36.686 27.3479L35.982 28.4705L36.0655 29.5932C36.2445 32.1283 35.2185 33.432 33.0351 33.42C31.2574 33.42 29.599 33.0095 27.1054 31.9593C24.5761 30.897 24.0988 30.7642 23.0012 30.7521C21.9632 30.7521 21.1519 30.9935 18.8969 31.9472C16.3437 33.0457 14.8404 33.4079 12.9792 33.4079C11.4162 33.3958 10.76 33.0216 10.1993 31.7782C9.96065 31.2591 9.92485 30.9815 9.92485 29.7864C9.92485 29.0258 9.87713 28.2895 9.80554 28.1567C9.74589 28.0239 9.42375 27.4806 9.07776 26.9495C7.33584 24.2333 6.5126 21.4085 6.5126 18.2095C6.50067 12.9462 8.863 8.20202 13.0746 4.96678C14.9716 3.50609 17.7516 2.31099 20.3048 1.85226C21.5695 1.6229 24.2181 1.61083 25.5544 1.84019Z" fill="black"/>
<path d="M22.7756 6.63205C22.6921 6.71656 22.6325 6.84935 22.6325 6.92178C22.6325 7.00628 22.4535 7.09078 22.2507 7.11492C21.9643 7.13907 21.845 7.2115 21.8211 7.39258C21.7973 7.52537 21.666 7.69437 21.5229 7.75473C21.3439 7.83923 21.2723 7.95995 21.2962 8.14103C21.32 8.28589 21.2127 8.52732 21.0218 8.7084C20.6996 9.03434 20.6877 9.13091 20.8309 10.0122C20.8905 10.3743 20.8786 10.6037 20.807 10.6278C20.7235 10.652 20.7354 11.0865 20.8428 11.9316C20.9383 12.6197 21.0098 13.2353 21.0218 13.3077C21.0218 13.3681 21.0695 13.5492 21.1292 13.7061C21.2843 14.1648 21.499 13.9355 21.5348 13.2715C21.5587 12.9214 21.6064 12.6438 21.6422 12.6438C21.678 12.6438 21.845 12.7887 22.0001 12.9577C22.2626 13.2474 22.2745 13.3319 22.191 13.8993L22.0956 14.5149L20.8428 14.6598C19.3037 14.8529 18.8981 15.0219 18.5879 15.6376C18.2061 16.386 18.0987 17.4001 18.1226 19.7661C18.1583 21.7097 18.1226 22.0719 17.9436 22.5064C17.7408 22.9531 17.6453 23.0376 17.0965 23.1945C16.4522 23.3877 15.8318 23.8102 14.4478 24.9932C13.3979 25.8986 13.04 26.0918 12.7417 25.9228C12.348 25.7175 11.9185 25.79 11.5844 26.1038C11.4054 26.2728 11.143 26.4418 11.0117 26.4781C10.8089 26.5263 10.7612 26.6229 10.7731 26.9609C10.785 27.1903 10.8685 27.4559 10.9401 27.5524C11.1549 27.818 11.0356 27.8784 10.6419 27.7335C10.4152 27.649 10.2601 27.649 10.1885 27.7214C10.0453 27.8663 10.5583 28.0957 11.0356 28.0957C11.2145 28.0957 11.5605 28.144 11.7992 28.2043C12.2287 28.3009 12.2645 28.2888 12.694 27.7456C13.3979 26.8523 13.5172 26.7678 14.9131 26.1642C15.6528 25.8503 16.6908 25.3675 17.2397 25.0898C17.7766 24.8121 18.218 24.6311 18.218 24.6794C18.218 24.7276 18.4328 24.5586 18.6952 24.2931C19.423 23.5688 19.6616 22.6151 19.9003 19.404C19.9719 18.3779 20.0434 17.5208 20.0673 17.4967C20.115 17.4484 20.8428 22.1201 20.8428 22.4823C20.8428 22.8807 20.5087 23.5084 20.0196 24.0275C19.6616 24.4259 18.5043 25.1622 18.1583 25.2226C18.0271 25.2347 17.8839 25.3071 17.8481 25.3554C17.8123 25.4037 17.6572 25.464 17.526 25.4761C17.3828 25.4882 17.2635 25.5365 17.2635 25.5847C17.2635 25.633 17.18 25.6451 17.0846 25.6089C16.9891 25.5606 16.9056 25.5968 16.9056 25.6813C16.9056 25.7537 16.8579 25.7779 16.7863 25.7417C16.7266 25.7055 16.667 25.7296 16.667 25.802C16.667 25.8865 16.5835 25.9228 16.488 25.8745C16.3926 25.8383 16.3091 25.8624 16.3091 25.9348C16.3091 26.0073 16.2255 26.0435 16.1301 25.9952C16.0346 25.959 15.9511 25.9952 15.9511 26.0676C15.9511 26.14 15.9153 26.1642 15.8676 26.128C15.8318 26.0797 15.7244 26.1038 15.629 26.1763C15.5455 26.2487 15.4739 26.2728 15.4739 26.2125C15.4739 26.1521 15.4262 26.1642 15.3784 26.2487C15.3307 26.3211 15.1875 26.4056 15.0563 26.4298C14.9251 26.4418 14.7938 26.5022 14.758 26.5384C14.7222 26.5867 14.4717 26.7316 14.1853 26.8764C13.1951 27.3834 12.0139 28.6872 12.0139 29.2787C12.0139 29.7616 12.4792 30.4617 13.0161 30.7635C13.4456 31.017 13.6485 31.0533 14.8177 31.0412C16.4284 31.0412 16.9772 30.8963 19.7571 29.7495C21.845 28.9045 21.8689 28.8924 22.9904 28.8924H24.1238L26.3907 29.8099C28.9678 30.8601 30.2086 31.174 31.5687 31.0895C32.6664 31.0291 33.251 30.7635 33.6566 30.1599C34.1816 29.3994 34.0981 28.9648 33.251 28.0595C32.8215 27.5887 32.2488 27.1299 31.7954 26.8885C31.3778 26.6712 31.008 26.4298 30.9602 26.3573C30.9125 26.2849 30.8648 26.2728 30.8648 26.3332C30.8648 26.3936 30.7932 26.3694 30.7097 26.297C30.6143 26.2245 30.5069 26.2004 30.4711 26.2487C30.4234 26.2849 30.3876 26.2608 30.3876 26.1763C30.3876 26.0918 30.316 26.0435 30.2205 26.0797C30.1251 26.1159 30.0296 26.1038 30.0058 26.0435C29.9819 25.9831 29.8387 25.9107 29.6717 25.8745C29.5047 25.8503 29.3496 25.8141 29.3138 25.802C29.278 25.7779 29.2183 25.7779 29.1706 25.79C29.111 25.79 29.0752 25.7417 29.0752 25.6692C29.0752 25.5968 28.9916 25.5606 28.8962 25.6089C28.8007 25.6451 28.7172 25.621 28.7172 25.5485C28.7172 25.4761 28.6695 25.452 28.6099 25.5002C28.5502 25.5365 28.4667 25.5123 28.419 25.4399C28.3712 25.3675 28.2877 25.3433 28.2281 25.3795C28.1684 25.4278 28.1207 25.3916 28.1207 25.3192C28.1207 25.2467 28.073 25.2226 28.0014 25.2588C27.9417 25.295 27.8821 25.2709 27.8821 25.1984C27.8821 25.126 27.8343 25.1019 27.7628 25.1381C27.6912 25.1743 27.6434 25.1502 27.6434 25.0657C27.6434 24.9812 27.6077 24.9449 27.5719 24.9932C27.4645 25.0898 26.856 24.7759 26.2833 24.3172C25.7226 23.8585 25.1379 22.9772 25.1379 22.5547C25.1379 22.2046 25.8777 17.5691 25.9254 17.6294C25.9373 17.6415 26.0447 18.6314 26.1521 19.8265C26.4384 23.0617 26.677 23.8826 27.4406 24.3655C28.1684 24.8242 30.3398 25.8865 31.4733 26.3332C32.559 26.7678 32.6425 26.8281 33.1436 27.5162L33.6566 28.2405L34.5037 28.156C35.4344 28.0595 35.8758 27.9267 35.8758 27.7335C35.8758 27.5766 35.7326 27.5766 35.327 27.7335C34.9452 27.8784 34.8259 27.806 35.0406 27.5524C35.1122 27.4559 35.1957 27.1903 35.2077 26.9609C35.2196 26.6229 35.1719 26.5263 34.969 26.4781C34.8378 26.4418 34.5753 26.2728 34.3964 26.1038C34.0504 25.79 33.6328 25.7175 33.2391 25.9348C32.9527 26.0918 32.4755 25.8141 31.342 24.8242C30.1251 23.774 29.5524 23.3998 28.8843 23.1945C28.2758 23.0255 28.2519 22.9893 28.0372 22.3857C27.8582 21.8546 27.8343 21.42 27.8582 19.4644C27.894 17.0741 27.7747 16.1567 27.3332 15.4686C27.023 15.0099 26.7486 14.9012 25.2573 14.696L23.8852 14.5149L23.8136 13.9113C23.7659 13.4285 23.7898 13.2595 23.9687 13.0784C24.088 12.9456 24.1835 12.8007 24.1835 12.7404C24.1835 12.6921 24.2312 12.6438 24.2909 12.6438C24.3624 12.6438 24.4221 12.9214 24.446 13.2715C24.5175 14.4063 24.9709 13.9717 25.0783 12.6679C25.1141 12.2816 25.1857 11.6901 25.2453 11.34C25.305 10.9658 25.2931 10.6761 25.2334 10.6399C25.1737 10.5916 25.1618 10.2415 25.1976 9.80693C25.2811 9.08262 25.2692 9.02227 24.9709 8.72047C24.792 8.53939 24.6726 8.29796 24.6965 8.14103C24.7084 7.97202 24.6249 7.83923 24.4579 7.75473C24.3147 7.69437 24.1835 7.52537 24.1596 7.39258C24.1357 7.22357 24.0164 7.13907 23.7659 7.11492C23.5273 7.09078 23.3602 6.98214 23.2887 6.8252C23.1455 6.49926 22.9665 6.43891 22.7756 6.63205ZM12.0139 26.5988C12.0139 26.8764 11.7872 27.2506 11.6202 27.2506C11.5367 27.2506 11.4054 27.142 11.3219 27.0092C11.2265 26.8523 11.2145 26.7678 11.31 26.7678C11.3816 26.7678 11.5128 26.6833 11.6083 26.5867C11.8469 26.3573 12.0139 26.3573 12.0139 26.5988ZM34.5992 26.6108C34.8378 26.6833 34.8497 26.7557 34.635 27.0334C34.4202 27.3352 34.2651 27.2989 34.11 26.9489C33.9072 26.5143 33.9311 26.3694 34.1816 26.466C34.289 26.5143 34.4799 26.5867 34.5992 26.6108Z" fill="black"/>
<path d="M17.944 34.9162C17.2282 35.6043 16.0351 36.4613 14.8539 37.1374C14.138 37.5478 14.0545 37.6202 13.9829 37.9582C13.7324 39.2499 12.599 43.1733 12.1814 44.2114C12.0859 44.4529 12.0859 44.4529 12.4319 44.2235C13.3387 43.632 15.2238 42.0868 16.0351 41.278C16.906 40.4088 17.8605 39.093 17.8605 38.755C17.8605 38.6705 17.9202 38.5981 17.9917 38.5981C18.0514 38.5981 18.0753 38.5377 18.0275 38.4653C17.9917 38.3928 18.0037 38.2963 18.0753 38.248C18.1588 38.1997 18.3258 37.4029 18.457 36.4855C18.5883 35.556 18.7195 34.6747 18.7553 34.5178C18.8508 34.1194 18.7076 34.1919 17.944 34.9162Z" fill="black"/>
<path d="M27.2852 34.5172C27.2852 35.1449 27.7743 37.9697 27.9533 38.356C28.0607 38.5854 28.2516 39.02 28.3947 39.3218C28.7288 40.0702 31.2343 42.557 32.6541 43.571C33.2745 44.0177 33.7995 44.3557 33.8233 44.3315C33.8472 44.3074 33.704 43.8607 33.5131 43.3417C33.1671 42.4483 32.2246 39.0079 32.0695 38.1146C31.9859 37.6679 32.0814 37.7404 29.8742 36.328C29.3253 35.9779 28.514 35.3622 28.0845 34.9638C27.3687 34.312 27.2852 34.2637 27.2852 34.5172Z" fill="black"/>
<path d="M19.8778 0.21191C16.215 0.887929 13.1368 2.44519 10.4762 4.98026C4.17667 10.992 3.09095 20.5166 7.86333 27.8804C8.49567 28.8582 8.51953 28.8824 8.77008 28.7134C8.88939 28.6409 8.77008 28.3754 8.25705 27.5666C7.01623 25.6471 6.16914 23.4863 5.73962 21.1564C5.44135 19.563 5.44135 16.6778 5.72769 15.0602C6.6941 9.76069 10.2734 4.94405 15.0577 2.52969C17.945 1.08108 21.4169 0.392986 24.4235 0.694781C28.7067 1.10522 32.4172 2.83149 35.3164 5.72871C37.7026 8.11892 39.2298 10.7626 39.9814 13.8047C41.1626 18.561 40.3513 23.4984 37.7026 27.6631C37.2254 28.4116 37.118 28.822 37.4043 28.822C37.5714 28.822 38.669 27.0716 39.2536 25.8644C40.6615 22.9793 41.3058 19.6233 41.0194 16.5571C40.6138 12.2837 39.027 8.71044 36.1755 5.65628C33.6342 2.94013 30.5798 1.21387 26.75 0.320556C25.1393 -0.0536694 21.5958 -0.114028 19.8778 0.21191Z" fill="#5A49F8"/>
<path d="M22.7027 6.08046C22.5953 6.17703 22.5118 6.30982 22.5118 6.37018C22.5118 6.43054 22.3686 6.4909 22.1897 6.51504C21.9868 6.53919 21.8079 6.6599 21.7124 6.85305C21.6408 7.00998 21.4619 7.19106 21.3306 7.23935C21.1875 7.28764 21.0801 7.4325 21.0801 7.56529C21.0801 7.91537 21.5215 7.74636 21.7482 7.32385C21.8675 7.08242 22.0107 6.97377 22.2135 6.97377C22.3806 6.97377 22.5595 6.8772 22.6311 6.73233C22.7027 6.59954 22.8697 6.4909 22.989 6.4909C23.1203 6.4909 23.2873 6.59954 23.3708 6.73233C23.4543 6.86512 23.6452 6.97377 23.7884 6.97377C23.9674 6.97377 24.1225 7.09449 24.2298 7.32385C24.4565 7.74636 24.898 7.91537 24.898 7.56529C24.898 7.4325 24.7906 7.28764 24.6474 7.23935C24.5162 7.19106 24.3372 7.00998 24.2656 6.85305C24.1702 6.6599 23.9912 6.53919 23.7884 6.51504C23.6094 6.4909 23.4663 6.43054 23.4663 6.37018C23.4663 6.23739 23.1203 5.88731 22.989 5.88731C22.9294 5.88731 22.7981 5.97181 22.7027 6.08046Z" fill="#5A49F8"/>
<path d="M20.8672 8.15484C20.6525 8.37213 20.6048 8.54114 20.6286 9.10851C20.6406 9.67589 20.6525 9.72417 20.6883 9.3258C20.7241 9.06022 20.8434 8.72221 20.9866 8.57735C21.1178 8.44456 21.2013 8.22727 21.1775 8.10655C21.1417 7.90133 21.1178 7.90133 20.8672 8.15484Z" fill="#5A49F8"/>
<path d="M24.7812 8.2425C24.7812 8.32701 24.8528 8.4598 24.9364 8.50808C25.0318 8.55637 25.163 8.7133 25.2346 8.84609C25.3659 9.07546 25.3659 9.07546 25.3659 8.78573C25.3659 8.44772 25.1272 8.06143 24.9125 8.06143C24.8409 8.06143 24.7812 8.14593 24.7812 8.2425Z" fill="#5A49F8"/>
<path d="M20.5438 10.2586C20.4961 10.3673 20.4842 10.5483 20.508 10.657C20.5438 10.8139 20.5677 10.8139 20.687 10.6208C20.7586 10.488 20.7824 10.331 20.7228 10.2224C20.6393 10.0896 20.6035 10.1017 20.5438 10.2586Z" fill="#5A49F8"/>
<path d="M25.2559 10.3179C25.2559 10.4386 25.3155 10.6197 25.3752 10.7163C25.4706 10.8612 25.4945 10.8249 25.4945 10.5714C25.4945 10.3904 25.4468 10.2093 25.3752 10.1731C25.3155 10.1369 25.2559 10.1972 25.2559 10.3179Z" fill="#5A49F8"/>
<path d="M20.2216 14.3958C19.6489 14.4803 19.0285 14.6372 18.8615 14.7579C18.6945 14.8666 18.4081 15.2649 18.2411 15.6392C17.919 16.3152 17.919 16.3635 17.907 19.1038C17.8951 21.6509 17.8832 21.9286 17.6445 22.4477C17.5133 22.7736 17.4417 23.0271 17.4894 23.0271C17.5491 23.0271 17.6923 22.7977 17.8116 22.508C18.0025 22.0734 18.0383 21.6509 18.0383 19.3452C18.0502 16.7981 18.0621 16.6532 18.3365 15.9772C18.7541 14.9752 19.0047 14.8304 20.6511 14.601C21.4147 14.5044 22.0351 14.3716 22.0351 14.3233C22.0351 14.1785 21.4982 14.2026 20.2216 14.3958Z" fill="#5A49F8"/>
<path d="M23.9434 14.3242C23.9434 14.3724 24.5638 14.5052 25.3154 14.6018C26.1267 14.7105 26.8068 14.8674 26.9977 15.0002C27.1647 15.1088 27.4511 15.5072 27.6181 15.8814C27.9402 16.5574 27.9402 16.6057 27.9402 19.2857C27.9522 21.5189 27.976 22.0742 28.1431 22.4364C28.2504 22.6778 28.3936 22.9193 28.4652 22.9555C28.5248 23.0038 28.4771 22.7744 28.3339 22.4605C28.0953 21.9294 28.0834 21.6638 28.0715 19.1046C28.0595 16.3643 28.0595 16.316 27.7374 15.64C27.5704 15.2658 27.284 14.8674 27.117 14.7587C26.938 14.638 26.2818 14.4811 25.5779 14.3845C24.1343 14.1914 23.9434 14.1793 23.9434 14.3242Z" fill="#5A49F8"/>
<path d="M15.5828 23.7772C15.2845 23.9945 14.6999 24.5016 14.2704 24.8879C13.3875 25.7087 13.6261 25.5639 14.7595 24.5981C15.1891 24.236 15.7021 23.8135 15.893 23.6686C16.4537 23.2461 16.1913 23.3427 15.5828 23.7772Z" fill="#5A49F8"/>
<path d="M30.0901 23.6555C30.281 23.8125 30.794 24.2229 31.2235 24.5851C32.1541 25.3818 32.5001 25.6232 32.011 25.1524C31.2951 24.4885 30.2571 23.6314 29.9946 23.5107C29.8276 23.4262 29.8634 23.4745 30.0901 23.6555Z" fill="#5A49F8"/>
<path d="M11.1676 26.1779C10.9409 26.371 10.929 26.3952 11.1199 26.2986C11.5255 26.0934 11.7283 25.9244 11.5852 25.9244C11.5016 25.9244 11.3227 26.033 11.1676 26.1779Z" fill="#5A49F8"/>
<path d="M34.4899 26.035C34.5377 26.1075 34.6808 26.2282 34.824 26.3006C35.003 26.3972 35.0388 26.3972 34.991 26.3006C34.9433 26.2282 34.8001 26.1075 34.657 26.035C34.478 25.9385 34.4422 25.9385 34.4899 26.035Z" fill="#5A49F8"/>
<path d="M10.3568 26.6374C10.2375 26.7098 10.2375 26.7943 10.3329 26.9875C10.4283 27.1685 10.4283 27.253 10.309 27.2893C10.1181 27.3617 10.309 27.5548 10.7028 27.6755C10.9652 27.7601 10.9772 27.748 10.834 27.5669C10.7505 27.4583 10.7028 27.2651 10.7386 27.1444C10.8221 26.8305 10.5715 26.5046 10.3568 26.6374Z" fill="#5A49F8"/>
<path d="M11.6926 26.6127C11.5136 26.6731 11.4778 27.1318 11.6449 27.1318C11.7523 27.1318 11.9551 26.661 11.8716 26.6007C11.8596 26.5765 11.7642 26.5886 11.6926 26.6127Z" fill="#5A49F8"/>
<path d="M34.0879 26.6022C34.0879 26.6384 34.1475 26.7712 34.2072 26.904C34.3981 27.242 34.589 27.1816 34.422 26.8315C34.3026 26.566 34.0879 26.409 34.0879 26.6022Z" fill="#5A49F8"/>
<path d="M35.338 26.7703C35.2903 26.9151 35.2903 27.06 35.3261 27.0962C35.3619 27.1445 35.3142 27.3014 35.2187 27.4584C35.0159 27.7722 35.0278 27.7843 35.4335 27.6274C35.6721 27.5308 35.7198 27.4342 35.7079 27.06C35.684 26.553 35.4573 26.3719 35.338 26.7703Z" fill="#5A49F8"/>
<path d="M13.0876 27.4113C12.9922 27.4958 12.8013 27.701 12.67 27.858C12.5268 28.0391 12.6223 27.9908 12.8848 27.7493C13.2785 27.3751 13.3859 27.2423 13.3024 27.2544C13.2785 27.2544 13.183 27.3268 13.0876 27.4113Z" fill="#5A49F8"/>
<path d="M9.79687 27.8806C9.74915 27.941 9.77301 28.0496 9.83266 28.11C10.0236 28.3032 11.2405 28.5446 11.6462 28.4842L12.028 28.4359L11.7893 28.8343C11.4672 29.3534 11.4791 29.7276 11.8132 30.3312C12.0041 30.6813 12.2546 30.9107 12.72 31.14C13.2807 31.4297 13.5074 31.478 14.3903 31.478C15.9652 31.478 17.0032 31.2124 19.4013 30.2226C20.0933 29.9328 21.0955 29.5465 21.6204 29.3655C22.9806 28.8947 23.422 28.9671 26.369 30.1381C29.1369 31.2366 30.2942 31.5263 31.7975 31.4539C33.098 31.4056 33.6349 31.1521 34.1002 30.4036C34.5059 29.7638 34.5297 29.3896 34.2076 28.8464L33.957 28.4359L34.3508 28.4722C34.9354 28.5204 35.9734 28.3273 36.1285 28.1462C36.3671 27.8444 36.1285 27.7599 35.6751 27.9893C35.4245 28.11 35.0666 28.2186 34.8638 28.2307C34.6729 28.2428 34.3746 28.279 34.2076 28.3273C33.9928 28.3997 33.8377 28.3514 33.611 28.1704C33.3366 27.9289 33.3486 27.941 33.6468 28.3152C33.8258 28.5446 34.0048 28.8464 34.0406 29.0154C34.1957 29.6552 33.7303 30.5002 32.9906 30.8986C32.5492 31.1279 32.2986 31.1762 31.2248 31.1762C29.6977 31.1642 28.946 30.971 25.9156 29.7638C23.0164 28.617 22.9686 28.617 20.0694 29.7518C16.7288 31.0797 15.7385 31.3211 14.271 31.2004C13.2211 31.1159 12.5887 30.7779 12.195 30.1139C11.8251 29.4741 11.8251 29.1602 12.1592 28.5929C12.2904 28.3514 12.3501 28.2186 12.2666 28.3032C12.1592 28.3877 11.9922 28.3997 11.7416 28.3273C11.5269 28.2669 11.2286 28.2186 11.0616 28.2186C10.8945 28.2186 10.5605 28.11 10.3099 27.9893C10.0474 27.8565 9.83266 27.8082 9.79687 27.8806Z" fill="#5A49F8"/>
<path d="M6.44289 29.9596C5.54807 30.6115 5.0589 31.2151 4.60552 32.1929C3.46015 34.6314 2.30285 36.6474 1.65858 37.3234L0.978516 38.0356L1.5512 37.5769C2.62499 36.7198 3.11415 35.9955 4.41463 33.4363C5.65545 30.9978 6.03724 30.4184 6.88433 29.7544C7.5644 29.2232 7.20647 29.3802 6.44289 29.9596Z" fill="#5A49F8"/>
<path d="M39.0376 29.6814C39.9921 30.4057 40.3977 31.0093 41.5789 33.3753C42.9629 36.1398 43.2015 36.5019 44.2395 37.3832L45.0031 38.0471L44.3946 37.3832C43.5594 36.4899 43.464 36.3209 42.1277 33.653C41.1017 31.6129 40.8511 31.2024 40.2188 30.5747C39.8251 30.1763 39.312 29.7538 39.0853 29.6331L38.6797 29.4158L39.0376 29.6814Z" fill="#5A49F8"/>
<path d="M18.6358 33.9777C15.3548 37.0319 9.31775 38.9151 3.55511 38.6736C1.0854 38.5771 0.643958 38.5167 0.727474 38.2753C0.775198 38.1787 0.620096 38.2511 0.393408 38.4322C-0.107692 38.8668 -0.119623 38.9151 0.29796 39.0117C0.966093 39.1807 5.4044 39.241 6.65715 39.0962C11.4295 38.5288 15.4741 36.9353 18.3495 34.4606C18.7909 34.0864 19.1727 33.8208 19.2204 33.857C19.2562 33.9053 19.292 33.8208 19.292 33.6759C19.292 33.5311 19.2801 33.4104 19.2682 33.4104C19.2443 33.4224 18.9699 33.6639 18.6358 33.9777Z" fill="#5A49F8"/>
<path d="M26.6914 33.65C26.6914 33.7949 26.7272 33.8794 26.7869 33.8432C26.8346 33.819 27.1448 34.0363 27.4669 34.3261C30.211 36.7887 34.3988 38.4788 39.2428 39.0823C40.4478 39.2393 45.2321 39.191 45.7571 39.022C46.0911 38.9133 46.0792 38.8288 45.7332 38.5753C45.5184 38.4184 45.3753 38.3942 44.9935 38.4908C44.7429 38.5512 43.6453 38.6357 42.5596 38.684C36.6776 38.9013 31.1297 37.2112 27.5027 34.0846C26.8107 33.4931 26.6914 33.4327 26.6914 33.65Z" fill="#5A49F8"/>
<path d="M18.959 35.3406C18.959 35.57 18.9828 35.6666 19.0186 35.5459C19.0425 35.4372 19.0425 35.2441 19.0186 35.1234C18.9828 35.0147 18.959 35.1113 18.959 35.3406Z" fill="#5A49F8"/>
<path d="M18.8378 37.5994C18.8258 38.5409 18.8736 39.6033 18.9451 39.9533C19.1957 41.1726 20.52 43.4783 21.8802 45.0235C22.942 46.2307 22.9062 46.2186 23.6101 45.5305C24.3737 44.7821 25.2685 43.5628 26.1276 42.1263C26.9985 40.6656 27.1775 39.893 27.1417 37.6718L27.1298 36.0059L27.0463 37.7563C26.9508 39.7964 26.8076 40.2914 25.7816 41.9452C24.9464 43.2731 24.3618 44.0457 23.5982 44.8183L22.9897 45.4098L22.5602 44.9994C21.391 43.8646 19.5894 41.1605 19.2076 39.9654C19.1122 39.6395 18.9929 38.6255 18.9451 37.6356L18.8497 35.8852L18.8378 37.5994Z" fill="#5A49F8"/>
<path d="M13.5047 38.8656C13.1825 39.94 12.2758 43.4891 12.3116 43.5253C12.3712 43.5978 12.8365 42.0767 13.3138 40.1815C13.7791 38.3586 13.8984 37.5619 13.5047 38.8656Z" fill="#5A49F8"/>
<path d="M32.2251 38.4185C33.2035 42.197 33.454 43.0661 33.4779 42.8126C33.5017 42.6436 32.416 38.5754 32.2967 38.3823C32.1774 38.2012 32.1774 38.2012 32.2251 38.4185Z" fill="#5A49F8"/>
<path d="M28.4079 39.773C28.8493 40.6422 29.9589 41.9097 31.2594 43.0203C32.4048 43.9982 34.3256 45.3985 34.4092 45.314C34.4927 45.2295 34.1347 44.5776 33.9796 44.5414C33.8961 44.5293 33.5143 44.2999 33.1325 44.0344C31.2594 42.7427 29.3027 40.9319 28.5749 39.7972C28.3721 39.4712 28.1812 39.2057 28.1573 39.2057C28.1335 39.2057 28.2528 39.4592 28.4079 39.773Z" fill="#5A49F8"/>
<path d="M17.1435 40.1808C16.5827 40.9655 15.6998 41.8347 14.4232 42.8728C13.3494 43.742 12.0012 44.6595 11.9177 44.575C11.8819 44.5387 11.7745 44.6836 11.691 44.8888C11.6075 45.1061 11.5478 45.2993 11.5717 45.3113C11.6194 45.3717 13.0511 44.3818 14.0772 43.5851C15.2226 42.7038 17.048 40.7844 17.4179 40.0722C17.6088 39.7342 17.74 39.4444 17.7161 39.4444C17.6923 39.4444 17.4417 39.7704 17.1435 40.1808Z" fill="#5A49F8"/>
</svg>
